<?xml version="1.0" standalone="no"?>
<!DOCTYPE svg PUBLIC "-//W3C//DTD SVG 20010904//EN"
 "http://www.w3.org/TR/2001/REC-SVG-20010904/DTD/svg10.dtd">
<svg version="1.0" xmlns="http://www.w3.org/2000/svg"
 width="665.000000pt" height="374.000000pt" viewBox="0 0 665.000000 374.000000"
 preserveAspectRatio="xMidYMid meet">

<g transform="translate(0.000000,374.000000) scale(0.100000,-0.100000)"
fill="currentColor" stroke="none">
<path d="M3300 3570 c-17 -17 -20 -27 -14 -48 15 -47 10 -116 -9 -145 -19 -30
-75 -59 -206 -108 -141 -53 -211 -145 -194 -256 5 -29 2 -32 -43 -52 -67 -30
-111 -66 -145 -119 -25 -40 -29 -56 -29 -119 0 -80 17 -132 54 -173 18 -19 31
-59 54 -170 92 -433 92 -432 152 -462 20 -10 67 -22 105 -28 92 -13 602 -13
685 1 75 12 132 45 148 86 7 15 38 148 70 295 54 243 62 270 90 302 27 31 52
89 52 122 0 6 -7 33 -15 60 -17 57 -70 124 -126 159 -28 18 -36 29 -32 44 8
32 -25 129 -58 166 -43 48 -80 73 -142 95 -52 18 -52 19 -60 71 -16 114 -92
217 -195 262 -88 39 -117 42 -142 17z m130 -85 c61 -32 127 -130 137 -204 8
-59 -12 -105 -69 -156 -64 -57 -131 -78 -341 -105 -219 -28 -207 -29 -207 23
0 81 45 121 195 177 59 22 124 53 145 70 53 42 83 107 78 170 -3 54 1 56 62
25z m260 -335 c100 -51 153 -135 130 -206 -16 -46 -76 -113 -140 -154 -63 -41
-178 -81 -325 -115 -156 -36 -238 -72 -266 -119 -20 -34 -21 -35 -72 -30 -96
10 -202 34 -227 52 -14 10 -35 38 -48 63 -46 88 -5 189 98 241 55 28 112 39
365 73 66 9 148 23 183 32 83 21 171 78 208 136 16 26 35 46 42 47 7 0 30 -9
52 -20z m217 -307 c47 -31 83 -91 83 -140 0 -149 -137 -193 -605 -192 -110 0
-208 4 -218 8 -43 16 29 46 227 92 221 52 324 100 421 199 27 27 53 50 57 50
5 0 20 -8 35 -17z m-37 -504 c-17 -74 -40 -177 -51 -229 -13 -62 -27 -102 -41
-117 -36 -38 -103 -44 -450 -41 -365 3 -386 7 -407 70 -17 55 -103 449 -98
454 2 3 44 -3 93 -11 192 -35 808 -30 934 8 25 7 46 10 48 7 1 -3 -11 -67 -28
-141z"/>
<path d="M3243 1064 c-61 -30 -117 -89 -146 -153 -32 -71 -29 -189 6 -257 67
-132 221 -195 360 -148 60 20 131 84 165 148 23 44 27 63 27 136 0 96 -19 150
-74 213 -77 87 -231 115 -338 61z m214 -36 c25 -17 51 -48 73 -89 32 -59 35
-71 35 -154 0 -79 -4 -97 -28 -147 -32 -65 -63 -93 -118 -108 -86 -23 -174 27
-220 124 -48 101 -38 253 22 337 51 72 159 88 236 37z"/>
<path d="M3850 1071 c-56 -29 -83 -76 -78 -138 6 -74 39 -112 148 -169 102
-54 119 -69 129 -116 33 -152 -212 -169 -255 -17 -17 59 -34 47 -34 -25 l0
-66 42 -21 c128 -66 302 -9 324 106 17 90 -24 147 -148 207 -86 43 -138 94
-138 138 0 42 9 59 41 75 65 34 140 5 177 -69 13 -25 27 -44 33 -41 11 7 12
95 1 112 -27 42 -179 58 -242 24z"/>
<path d="M5974 1071 c-52 -32 -74 -68 -74 -123 0 -85 27 -119 156 -189 56 -31
97 -62 107 -79 51 -86 -29 -178 -131 -151 -55 15 -88 44 -108 96 -9 25 -21 45
-26 45 -5 0 -8 -30 -6 -67 3 -68 3 -68 41 -86 21 -11 64 -21 96 -24 101 -9
180 29 213 104 42 95 0 165 -143 239 -105 54 -129 80 -129 140 0 112 154 114
215 3 14 -27 28 -49 31 -49 2 0 4 29 4 64 l0 64 -40 16 c-57 23 -166 21 -206
-3z"/>
<path d="M390 1075 c0 -3 10 -16 23 -28 13 -12 37 -58 54 -102 18 -44 60 -154
96 -245 35 -91 68 -175 72 -188 15 -50 38 -17 109 155 39 95 74 173 77 173 4
0 34 -75 69 -167 34 -93 66 -172 71 -178 13 -14 33 11 57 75 12 30 55 145 97
255 51 133 84 207 101 222 13 12 24 25 24 28 0 3 -29 5 -65 5 -61 0 -84 -11
-50 -24 8 -3 15 -14 15 -24 0 -24 -127 -393 -139 -405 -5 -5 -12 1 -16 14 -4
13 -36 102 -71 197 -35 94 -64 181 -64 193 0 12 8 23 20 26 46 12 14 23 -69
23 -87 0 -125 -12 -77 -24 18 -4 29 -22 50 -78 l27 -72 -57 -150 -58 -149 -17
40 c-9 22 -45 117 -80 212 l-63 173 22 18 c12 10 22 21 22 24 0 3 -40 6 -90 6
-49 0 -90 -2 -90 -5z"/>
<path d="M1330 1072 c0 -4 10 -12 23 -17 22 -10 22 -11 25 -263 l2 -252 -25
-10 c-51 -20 -25 -30 75 -30 102 0 122 9 73 32 l-28 13 0 250 c0 250 0 250 23
260 42 18 22 25 -73 25 -52 0 -95 -3 -95 -8z"/>
<path d="M1630 1070 c0 -5 6 -10 14 -10 8 0 22 -7 30 -16 14 -13 16 -50 16
-244 0 -126 -3 -236 -6 -245 -4 -9 -17 -21 -30 -26 -50 -19 -23 -29 76 -29
102 0 122 9 73 32 -28 13 -28 14 -31 131 -1 69 1 117 7 117 13 0 101 -100 174
-197 l62 -83 67 0 c37 0 70 5 73 10 3 6 1 10 -5 10 -6 0 -34 21 -62 48 -57 53
-228 255 -228 269 0 18 206 212 233 218 53 14 26 25 -58 25 -80 0 -111 -11
-65 -23 11 -3 20 -10 20 -15 0 -9 -208 -242 -217 -242 -1 0 -3 54 -3 120 l0
121 30 13 c17 7 27 15 23 19 -11 11 -193 8 -193 -3z"/>
<path d="M2240 1072 c0 -4 10 -12 23 -17 22 -10 22 -11 25 -263 l2 -252 -25
-10 c-51 -19 -26 -30 70 -30 62 0 95 4 95 11 0 6 -9 13 -21 16 -11 3 -25 17
-30 30 -5 13 -9 125 -9 247 0 203 2 224 18 239 10 10 24 17 30 17 7 0 12 5 12
10 0 6 -38 10 -95 10 -52 0 -95 -3 -95 -8z"/>
<path d="M2540 1071 c0 -6 6 -11 14 -11 8 0 22 -10 30 -22 13 -19 16 -58 16
-229 0 -240 -4 -267 -36 -280 -51 -19 -23 -29 82 -29 80 0 105 3 102 13 -3 6
-13 14 -24 16 -39 7 -44 21 -44 117 l0 94 61 0 c83 0 135 17 180 60 88 84 72
199 -36 258 -23 13 -65 18 -187 20 -109 3 -158 0 -158 -7z m289 -45 c39 -21
65 -78 58 -129 -8 -58 -60 -108 -123 -117 -85 -13 -84 -15 -84 130 0 114 2
129 18 134 27 8 100 -2 131 -18z"/>
<path d="M4210 1020 c0 -66 11 -76 30 -30 16 38 30 46 103 54 l57 7 0 -243 c0
-134 -4 -248 -8 -255 -4 -6 -20 -16 -35 -22 -55 -21 -28 -31 83 -31 108 0 138
10 87 29 -46 18 -48 24 -45 277 l3 239 60 -2 c62 -2 77 -12 111 -69 18 -30 25
-11 18 50 l-7 56 -228 0 -229 0 0 -60z"/>
<path d="M4760 1072 c0 -6 11 -13 25 -16 14 -4 27 -16 30 -29 3 -12 4 -125 3
-252 l-3 -230 -27 -13 c-50 -23 -30 -32 72 -32 102 0 122 9 73 32 -28 13 -28
14 -31 121 l-3 107 31 0 c25 0 36 -8 63 -47 121 -176 162 -213 233 -213 49 0
66 16 31 29 -13 5 -43 31 -68 58 -46 52 -129 169 -129 181 1 4 20 16 43 28 81
39 113 137 68 210 -34 56 -77 69 -253 72 -97 2 -158 0 -158 -6z m290 -47 c32
-17 50 -54 50 -103 -1 -78 -52 -122 -142 -122 l-58 0 0 119 c0 105 2 120 18
124 26 8 103 -3 132 -18z"/>
<path d="M5350 1072 c0 -4 14 -13 30 -19 l30 -11 0 -250 0 -250 -31 -12 c-17
-7 -26 -17 -21 -22 4 -4 98 -7 207 -6 l199 3 7 35 c17 91 18 110 3 110 -8 0
-14 -7 -14 -15 0 -8 -17 -32 -37 -54 -32 -33 -46 -40 -93 -46 -30 -4 -73 -5
-95 -3 l-40 3 -3 123 -3 122 71 0 c72 0 86 -7 117 -56 10 -16 12 -2 12 74 1
60 -3 91 -9 87 -5 -3 -10 -12 -10 -19 0 -28 -37 -46 -108 -52 l-73 -7 3 119 3
119 62 3 c93 4 140 -11 160 -53 25 -52 44 -46 37 13 -3 26 -7 53 -10 60 -2 9
-51 12 -199 12 -107 0 -195 -4 -195 -8z"/>
</g>
</svg>
